<svg xmlns="http://www.w3.org/2000/svg" xmlns:xlink="http://www.w3.org/1999/xlink" width="129" zoomAndPan="magnify" viewBox="0 0 96.75 30.000001" height="40" preserveAspectRatio="xMidYMid meet" version="1.0"><defs><g/><clipPath id="1412f416c7"><path d="M 45 0.769531 L 59 0.769531 L 59 21.144531 L 45 21.144531 Z M 45 0.769531 " clip-rule="nonzero"/></clipPath><clipPath id="c84488ba3a"><path d="M 31 0.769531 L 45 0.769531 L 45 21.144531 L 31 21.144531 Z M 31 0.769531 " clip-rule="nonzero"/></clipPath><clipPath id="e4291a1d19"><path d="M 45 0.769531 L 50 0.769531 L 50 21.144531 L 45 21.144531 Z M 45 0.769531 " clip-rule="nonzero"/></clipPath><clipPath id="7649974dde"><path d="M 25 0.769531 L 30 0.769531 L 30 21.144531 L 25 21.144531 Z M 25 0.769531 " clip-rule="nonzero"/></clipPath><clipPath id="0945a92ca1"><path d="M 59 0.769531 L 76 0.769531 L 76 21.144531 L 59 21.144531 Z M 59 0.769531 " clip-rule="nonzero"/></clipPath><clipPath id="b22f4eff35"><path d="M 76 0.769531 L 92.128906 0.769531 L 92.128906 21.144531 L 76 21.144531 Z M 76 0.769531 " clip-rule="nonzero"/></clipPath><clipPath id="c166f8b6d5"><path d="M 5 0.769531 L 24 0.769531 L 24 16 L 5 16 Z M 5 0.769531 " clip-rule="nonzero"/></clipPath><clipPath id="1f37015f5c"><path d="M 4.808594 6 L 25 6 L 25 21.144531 L 4.808594 21.144531 Z M 4.808594 6 " clip-rule="nonzero"/></clipPath></defs><path fill="#ffffff" d="M 49.042969 9.359375 L 56.605469 9.359375 L 56.605469 12.28125 L 49.042969 12.28125 Z M 49.042969 9.359375 " fill-opacity="1" fill-rule="nonzero"/><g clip-path="url(#1412f416c7)"><path fill="#ffffff" d="M 58.582031 21.082031 L 45.390625 21.082031 L 45.390625 0.878906 L 55.882812 0.878906 C 56.222656 0.878906 56.550781 0.941406 56.863281 1.074219 C 57.179688 1.203125 57.457031 1.386719 57.699219 1.625 C 57.9375 1.863281 58.125 2.140625 58.253906 2.453125 C 58.382812 2.765625 58.449219 3.09375 58.449219 3.429688 L 58.449219 3.882812 L 49.054688 3.882812 L 49.054688 9.359375 L 56.609375 9.359375 L 56.609375 12.289062 L 49.054688 12.289062 L 49.054688 17.941406 L 58.589844 17.941406 Z M 58.582031 21.082031 " fill-opacity="1" fill-rule="nonzero"/></g><g clip-path="url(#c84488ba3a)"><path fill="#ffffff" d="M 43.917969 21.109375 L 31.625 21.109375 C 31.558594 21.109375 31.523438 21.078125 31.523438 21.011719 L 31.523438 1.007812 C 31.523438 0.941406 31.558594 0.910156 31.625 0.910156 C 32.121094 0.910156 32.601562 1.003906 33.058594 1.191406 C 33.519531 1.382812 33.925781 1.652344 34.277344 2.003906 C 34.628906 2.351562 34.898438 2.757812 35.089844 3.214844 C 35.28125 3.671875 35.375 4.148438 35.378906 4.640625 L 35.378906 17.707031 C 35.378906 17.773438 35.410156 17.808594 35.476562 17.808594 L 40.816406 17.808594 C 41.238281 17.808594 41.648438 17.886719 42.039062 18.050781 C 42.433594 18.210938 42.78125 18.441406 43.082031 18.742188 C 43.382812 19.039062 43.613281 19.386719 43.773438 19.777344 C 43.9375 20.167969 44.019531 20.574219 44.019531 20.996094 L 44.019531 21.007812 C 44.019531 21.078125 43.988281 21.109375 43.917969 21.109375 Z M 43.917969 21.109375 " fill-opacity="1" fill-rule="nonzero"/></g><g clip-path="url(#e4291a1d19)"><path fill="#ffffff" d="M 45.390625 0.878906 L 45.390625 21.082031 L 49.03125 21.050781 L 49.03125 4.378906 C 49.027344 3.917969 48.941406 3.472656 48.765625 3.046875 C 48.589844 2.621094 48.335938 2.242188 48.011719 1.914062 C 47.683594 1.589844 47.308594 1.335938 46.882812 1.15625 C 46.453125 0.976562 46.007812 0.882812 45.546875 0.878906 Z M 45.390625 0.878906 " fill-opacity="1" fill-rule="nonzero"/></g><g clip-path="url(#7649974dde)"><path fill="#ffffff" d="M 29.1875 21.109375 L 28.507812 21.109375 C 28.097656 21.109375 27.707031 21.035156 27.328125 20.878906 C 26.949219 20.722656 26.617188 20.5 26.328125 20.214844 C 26.039062 19.925781 25.816406 19.59375 25.660156 19.21875 C 25.503906 18.84375 25.425781 18.453125 25.425781 18.046875 L 25.425781 0.871094 L 25.71875 0.871094 C 27.636719 0.871094 29.191406 2.375 29.191406 4.234375 Z M 29.1875 21.109375 " fill-opacity="1" fill-rule="nonzero"/></g><g clip-path="url(#0945a92ca1)"><path fill="#ffffff" d="M 75.746094 21.109375 L 72.09375 21.109375 L 64.171875 8.167969 L 63.574219 7.199219 C 63.453125 7.007812 63.265625 6.695312 63.007812 6.265625 L 63.007812 21.109375 L 59.980469 21.109375 L 59.980469 0.835938 L 62.464844 0.835938 C 62.988281 0.835938 63.476562 0.964844 63.929688 1.21875 C 64.386719 1.472656 64.75 1.820312 65.019531 2.265625 L 71.453125 12.777344 C 71.515625 12.875 71.957031 13.601562 72.78125 14.960938 L 72.78125 0.835938 L 73.183594 0.835938 C 73.523438 0.835938 73.851562 0.902344 74.164062 1.03125 C 74.480469 1.160156 74.757812 1.34375 74.996094 1.585938 C 75.238281 1.824219 75.421875 2.101562 75.554688 2.414062 C 75.683594 2.726562 75.75 3.050781 75.75 3.390625 Z M 75.746094 21.109375 " fill-opacity="1" fill-rule="nonzero"/></g><g clip-path="url(#b22f4eff35)"><path fill="#ffffff" d="M 86.578125 21.109375 L 82.542969 21.109375 L 82.542969 3.949219 L 76.988281 3.949219 L 76.988281 0.808594 L 89.105469 0.808594 C 89.507812 0.808594 89.894531 0.886719 90.261719 1.039062 C 90.632812 1.191406 90.960938 1.410156 91.246094 1.691406 C 91.527344 1.976562 91.746094 2.300781 91.902344 2.671875 C 92.054688 3.039062 92.132812 3.425781 92.132812 3.824219 L 92.132812 3.945312 L 86.578125 3.945312 Z M 86.578125 21.109375 " fill-opacity="1" fill-rule="nonzero"/></g><g clip-path="url(#c166f8b6d5)"><path fill="#ffffff" d="M 23.328125 0.859375 L 20.550781 3.371094 C 19.804688 4.03125 18.933594 4.359375 17.9375 4.351562 L 13.757812 4.351562 C 11.429688 4.351562 9.539062 6.074219 9.539062 8.175781 C 9.539062 10.277344 11.429688 11.996094 13.757812 11.996094 L 16.214844 11.996094 C 17.277344 11.996094 18.140625 12.777344 18.140625 13.742188 C 18.140625 14.707031 17.277344 15.488281 16.214844 15.488281 L 13.757812 15.488281 C 9.304688 15.488281 5.683594 12.207031 5.683594 8.171875 C 5.683594 4.140625 9.304688 0.859375 13.757812 0.859375 Z M 23.328125 0.859375 " fill-opacity="1" fill-rule="nonzero"/></g><g clip-path="url(#1f37015f5c)"><path fill="#ffffff" d="M 24.351562 13.742188 C 24.351562 17.777344 20.730469 21.058594 16.28125 21.058594 L 4.808594 21.058594 L 7.585938 18.546875 C 8.328125 17.886719 9.195312 17.558594 10.191406 17.5625 L 16.273438 17.5625 C 18.597656 17.5625 20.492188 15.847656 20.492188 13.742188 C 20.492188 11.632812 18.589844 9.917969 16.273438 9.917969 L 13.460938 9.917969 C 12.398438 9.917969 11.535156 9.136719 11.535156 8.171875 C 11.535156 7.207031 12.398438 6.429688 13.460938 6.429688 L 16.273438 6.429688 C 20.722656 6.425781 24.351562 9.710938 24.351562 13.742188 Z M 24.351562 13.742188 " fill-opacity="1" fill-rule="nonzero"/></g><g fill="#ffffff" fill-opacity="1"><g transform="translate(5.159993, 28.783861)"><g><path d="M 1.8125 -2.4375 L 1.8125 -0.921875 L 4.46875 -0.921875 L 4.46875 0 L 0.71875 0 L 0.71875 -5.546875 L 4.40625 -5.546875 L 4.40625 -4.625 L 1.8125 -4.625 L 1.8125 -3.328125 L 4.078125 -3.328125 L 4.078125 -2.4375 Z M 1.8125 -2.4375 "/></g></g></g><g fill="#ffffff" fill-opacity="1"><g transform="translate(11.321188, 28.783861)"><g/></g></g><g fill="#ffffff" fill-opacity="1"><g transform="translate(14.548914, 28.783861)"><g><path d="M 1.8125 -5.546875 L 1.8125 -0.921875 L 4.3125 -0.921875 L 4.3125 0 L 0.71875 0 L 0.71875 -5.546875 Z M 1.8125 -5.546875 "/></g></g></g><g fill="#ffffff" fill-opacity="1"><g transform="translate(20.433439, 28.783861)"><g/></g></g><g fill="#ffffff" fill-opacity="1"><g transform="translate(23.661165, 28.783861)"><g><path d="M 1.8125 -2.4375 L 1.8125 -0.921875 L 4.46875 -0.921875 L 4.46875 0 L 0.71875 0 L 0.71875 -5.546875 L 4.40625 -5.546875 L 4.40625 -4.625 L 1.8125 -4.625 L 1.8125 -3.328125 L 4.078125 -3.328125 L 4.078125 -2.4375 Z M 1.8125 -2.4375 "/></g></g></g><g fill="#ffffff" fill-opacity="1"><g transform="translate(29.82236, 28.783861)"><g/></g></g><g fill="#ffffff" fill-opacity="1"><g transform="translate(33.050086, 28.783861)"><g><path d="M 3.296875 0 L 1.96875 0 L 0.09375 -5.546875 L 1.265625 -5.546875 L 2.609375 -1.40625 L 2.703125 -1.40625 L 4.03125 -5.546875 L 5.171875 -5.546875 Z M 3.296875 0 "/></g></g></g><g fill="#ffffff" fill-opacity="1"><g transform="translate(39.707773, 28.783861)"><g/></g></g><g fill="#ffffff" fill-opacity="1"><g transform="translate(42.935499, 28.783861)"><g><path d="M 5.3125 0 L 4.171875 0 L 3.75 -1.28125 L 1.625 -1.28125 L 1.203125 0 L 0.078125 0 L 2 -5.546875 L 3.40625 -5.546875 Z M 2.640625 -4.390625 L 1.921875 -2.203125 L 3.453125 -2.203125 L 2.734375 -4.390625 Z M 2.640625 -4.390625 "/></g></g></g><g fill="#ffffff" fill-opacity="1"><g transform="translate(49.733419, 28.783861)"><g/></g></g><g fill="#ffffff" fill-opacity="1"><g transform="translate(52.961148, 28.783861)"><g><path d="M 4.4375 -5.546875 L 4.4375 -4.625 L 2.84375 -4.625 L 2.84375 0 L 1.75 0 L 1.75 -4.625 L 0.15625 -4.625 L 0.15625 -5.546875 Z M 4.4375 -5.546875 "/></g></g></g><g fill="#ffffff" fill-opacity="1"><g transform="translate(58.951795, 28.783861)"><g/></g></g><g fill="#ffffff" fill-opacity="1"><g transform="translate(62.179524, 28.783861)"><g><path d="M 3.015625 0.078125 C 2.515625 0.078125 2.066406 -0.0234375 1.671875 -0.234375 C 1.285156 -0.441406 0.984375 -0.753906 0.765625 -1.171875 C 0.546875 -1.597656 0.4375 -2.128906 0.4375 -2.765625 C 0.4375 -3.398438 0.546875 -3.929688 0.765625 -4.359375 C 0.984375 -4.785156 1.285156 -5.101562 1.671875 -5.3125 C 2.066406 -5.519531 2.515625 -5.625 3.015625 -5.625 C 3.523438 -5.625 3.972656 -5.519531 4.359375 -5.3125 C 4.742188 -5.101562 5.046875 -4.785156 5.265625 -4.359375 C 5.484375 -3.929688 5.59375 -3.398438 5.59375 -2.765625 C 5.59375 -2.128906 5.484375 -1.597656 5.265625 -1.171875 C 5.046875 -0.742188 4.742188 -0.425781 4.359375 -0.21875 C 3.972656 -0.0195312 3.523438 0.078125 3.015625 0.078125 Z M 3.015625 -0.875 C 3.492188 -0.875 3.851562 -1.023438 4.09375 -1.328125 C 4.34375 -1.628906 4.46875 -2.109375 4.46875 -2.765625 C 4.46875 -3.429688 4.34375 -3.914062 4.09375 -4.21875 C 3.851562 -4.519531 3.492188 -4.671875 3.015625 -4.671875 C 2.546875 -4.671875 2.1875 -4.519531 1.9375 -4.21875 C 1.6875 -3.914062 1.5625 -3.429688 1.5625 -2.765625 C 1.5625 -2.109375 1.6875 -1.628906 1.9375 -1.328125 C 2.1875 -1.023438 2.546875 -0.875 3.015625 -0.875 Z M 3.015625 -0.875 "/></g></g></g><g fill="#ffffff" fill-opacity="1"><g transform="translate(69.614166, 28.783861)"><g/></g></g><g fill="#ffffff" fill-opacity="1"><g transform="translate(72.841894, 28.783861)"><g><path d="M 0.71875 0 L 0.71875 -5.546875 L 2.953125 -5.546875 C 3.523438 -5.546875 3.957031 -5.410156 4.25 -5.140625 C 4.539062 -4.878906 4.6875 -4.515625 4.6875 -4.046875 C 4.6875 -3.710938 4.597656 -3.4375 4.421875 -3.21875 C 4.253906 -3.007812 4 -2.847656 3.65625 -2.734375 L 3.65625 -2.65625 C 3.832031 -2.582031 3.972656 -2.46875 4.078125 -2.3125 C 4.191406 -2.164062 4.296875 -1.945312 4.390625 -1.65625 L 4.9375 0 L 3.8125 0 L 3.28125 -1.65625 C 3.21875 -1.820312 3.148438 -1.953125 3.078125 -2.046875 C 3.015625 -2.140625 2.925781 -2.207031 2.8125 -2.25 C 2.707031 -2.289062 2.570312 -2.3125 2.40625 -2.3125 L 1.8125 -2.3125 L 1.8125 0 Z M 2.8125 -3.171875 C 3.34375 -3.171875 3.609375 -3.421875 3.609375 -3.921875 C 3.609375 -4.421875 3.34375 -4.671875 2.8125 -4.671875 L 1.8125 -4.671875 L 1.8125 -3.171875 Z M 2.8125 -3.171875 "/></g></g></g><g fill="#ffffff" fill-opacity="1"><g transform="translate(79.419993, 28.783861)"><g/></g></g><g fill="#ffffff" fill-opacity="1"><g transform="translate(82.647722, 28.783861)"><g><path d="M 2.453125 0.078125 C 2.066406 0.078125 1.722656 0.03125 1.421875 -0.0625 C 1.128906 -0.15625 0.882812 -0.28125 0.6875 -0.4375 C 0.488281 -0.59375 0.332031 -0.757812 0.21875 -0.9375 L 0.828125 -1.6875 L 0.921875 -1.6875 C 1.085938 -1.4375 1.296875 -1.238281 1.546875 -1.09375 C 1.804688 -0.945312 2.109375 -0.875 2.453125 -0.875 C 2.742188 -0.875 2.960938 -0.929688 3.109375 -1.046875 C 3.265625 -1.171875 3.34375 -1.34375 3.34375 -1.5625 C 3.34375 -1.695312 3.316406 -1.804688 3.265625 -1.890625 C 3.222656 -1.984375 3.144531 -2.0625 3.03125 -2.125 C 2.914062 -2.1875 2.765625 -2.238281 2.578125 -2.28125 L 1.875 -2.453125 C 1.375 -2.566406 1 -2.753906 0.75 -3.015625 C 0.507812 -3.273438 0.390625 -3.617188 0.390625 -4.046875 C 0.390625 -4.359375 0.46875 -4.632812 0.625 -4.875 C 0.78125 -5.113281 1.007812 -5.296875 1.3125 -5.421875 C 1.613281 -5.554688 1.972656 -5.625 2.390625 -5.625 C 2.816406 -5.625 3.179688 -5.566406 3.484375 -5.453125 C 3.785156 -5.335938 4.039062 -5.164062 4.25 -4.9375 L 3.71875 -4.1875 L 3.625 -4.1875 C 3.457031 -4.351562 3.273438 -4.476562 3.078125 -4.5625 C 2.878906 -4.644531 2.648438 -4.6875 2.390625 -4.6875 C 2.085938 -4.6875 1.859375 -4.632812 1.703125 -4.53125 C 1.546875 -4.425781 1.46875 -4.28125 1.46875 -4.09375 C 1.46875 -3.914062 1.519531 -3.773438 1.625 -3.671875 C 1.738281 -3.566406 1.929688 -3.484375 2.203125 -3.421875 L 2.921875 -3.28125 C 3.460938 -3.164062 3.851562 -2.972656 4.09375 -2.703125 C 4.34375 -2.429688 4.46875 -2.078125 4.46875 -1.640625 C 4.46875 -1.285156 4.390625 -0.976562 4.234375 -0.71875 C 4.085938 -0.46875 3.863281 -0.269531 3.5625 -0.125 C 3.257812 0.0078125 2.890625 0.078125 2.453125 0.078125 Z M 2.453125 0.078125 "/></g></g></g></svg>